<svg id="Layer_1" data-name="Layer 1" xmlns="http://www.w3.org/2000/svg" viewBox="0 0 702 703"><defs><style>.cls-1{fill:none;}.cls-1,.cls-3{stroke:#000;}.cls-1,.cls-2,.cls-3{stroke-miterlimit:10;stroke-width:6px;}.cls-2{stroke:#fff;}.cls-3{fill:#fff;}</style></defs><title>1_round</title><circle class="cls-1" cx="351.46" cy="351.46" r="318.48"/><rect class="cls-2" x="311" y="640" width="60" height="60" rx="16" ry="16"/><rect class="cls-2" x="311" y="3" width="60" height="60" rx="16" ry="16"/><rect class="cls-2" x="3" y="306" width="60" height="60" rx="16" ry="16"/><rect class="cls-2" x="639" y="306" width="60" height="60" rx="16" ry="16"/><rect class="cls-3" x="746" y="246" width="55" height="55" rx="16" ry="16" transform="translate(-622.84 493.05) rotate(-45)"/><rect class="cls-3" x="742" y="666" width="55" height="55" rx="16" ry="16" transform="translate(-921 613.24) rotate(-45)"/><rect class="cls-3" x="1211" y="241" width="55" height="55" rx="16" ry="16" transform="translate(-483.11 820.39) rotate(-45)"/><rect class="cls-3" x="1211" y="666" width="55" height="55" rx="16" ry="16" transform="translate(-783.63 944.87) rotate(-45)"/></svg>