<svg id="move_blauw_01" data-name="move_blauw_01" xmlns="http://www.w3.org/2000/svg" viewBox="0 0 986 775"><defs><style>.move_blauw_01_01{fill:#fff;stroke:#000;}.move_blauw_01_01,.move_blauw_01_02{stroke-miterlimit:10;stroke-width:8px;}.move_blauw_01_02{stroke:#fff;}</style></defs><title>slaap-10</title><rect class="move_blauw_01_01" x="164" y="439.75" width="71.5" height="71.5" rx="16" ry="16" transform="translate(675.25 275.75) rotate(90)"/><rect class="move_blauw_01_01" x="352" y="439.75" width="71.5" height="71.5" rx="16" ry="16" transform="translate(863.25 87.75) rotate(90)"/><rect class="move_blauw_01_01" x="540" y="439.75" width="71.5" height="71.5" rx="16" ry="16" transform="translate(1051.25 -100.25) rotate(90)"/><rect class="move_blauw_01_01" x="728" y="439.75" width="71.5" height="71.5" rx="16" ry="16" transform="translate(1239.25 -288.25) rotate(90)"/><rect class="move_blauw_01_02" x="161" y="268" width="78" height="78" rx="16" ry="16" transform="translate(507 107) rotate(90)"/><rect class="move_blauw_01_02" x="349" y="268" width="78" height="78" rx="16" ry="16" transform="translate(695 -81) rotate(90)"/><rect class="move_blauw_01_02" x="537" y="268" width="78" height="78" rx="16" ry="16" transform="translate(883 -269) rotate(90)"/><rect class="move_blauw_01_02" x="725" y="268" width="78" height="78" rx="16" ry="16" transform="translate(1071 -457) rotate(90)"/></svg>
