<svg id="move_boano_01" data-name="move_boano_01" xmlns="http://www.w3.org/2000/svg" viewBox="0 0 817.06 816.09"><defs><style>.move_boano_01_01{fill:none;}.move_boano_01_01,.move_boano_01_03{stroke:#000;}.move_boano_01_01,.move_boano_01_02,.move_boano_01_03{stroke-miterlimit:10;stroke-width:6px;}.move_boano_01_02{stroke:#fff;}.move_boano_01_03{fill:#fff;}</style></defs><title>boano-13</title><circle class="move_boano_01_01" cx="407.49" cy="411.01" r="318.48"/><rect class="move_boano_01_02" x="367.03" y="699.55" width="60" height="60" rx="16" ry="16"/><rect class="move_boano_01_02" x="367.03" y="62.55" width="60" height="60" rx="16" ry="16"/><rect class="move_boano_01_02" x="59.03" y="365.55" width="60" height="60" rx="16" ry="16"/><rect class="move_boano_01_02" x="695.03" y="365.55" width="60" height="60" rx="16" ry="16"/><rect class="move_boano_01_03" x="146.03" y="171.55" width="55" height="55" rx="16" ry="16" transform="translate(-89.92 181) rotate(-45)"/><rect class="move_boano_01_03" x="142.03" y="591.55" width="55" height="55" rx="16" ry="16" transform="translate(-388.08 301.19) rotate(-45)"/><rect class="move_boano_01_03" x="611.03" y="166.55" width="55" height="55" rx="16" ry="16" transform="translate(49.81 508.34) rotate(-45)"/><rect class="move_boano_01_03" x="611.03" y="591.55" width="55" height="55" rx="16" ry="16" transform="translate(-250.71 632.82) rotate(-45)"/></svg>
