<svg id="move_dru_01" data-name="move_dru_01" xmlns="http://www.w3.org/2000/svg" viewBox="0 0 297 286"><title>dru</title><path class="move_dru_left" d="M210.75,227.22c-1.79-1.8-1.22-4.17,1-6.37-8.49,0-15.59-4.82-27.26-15.67-8.82-8.17-12.82-13-10.29-18,1.31-2.45,3.59-4.41,5.88-4.74a7.42,7.42,0,0,1,1.06-6.94,7,7,0,0,1,5.14-2.53,7,7,0,0,1,1.64-7.51c1.47-1.47,5.38-3.59,8.89-1.39-6.53-6.53-11.83-11.83-15.42-16.08s-3-8.24-.09-11.18c3.43-3.43,7.76-3,11.11-.33A251.55,251.55,0,0,1,218.1,160.6a18.81,18.81,0,0,1,9.31,4.9c4.57,4.57,7,10.12,8.08,17.39.57,4,.82,9,2.77,11.59,2.62-2.61,4.66-3,6.45-1.22l9.31,9.3c2.69,2.86,2.61,4.58-.08,7.27l-26.61,26.61c-2.7,2.7-4.49,2.86-7.27.08Zm-6.61-63.76a45,45,0,0,1,7.1-2.2c-6.94-6.94-15.34-14.86-21.88-20.09a2.76,2.76,0,0,0-3.75-.16c-1.06,1.06-.9,2.53.24,3.84C191.49,151,197.86,157.5,204.14,163.46ZM205,179a95.39,95.39,0,0,0-9.15-9,2.67,2.67,0,0,0-3.51,3.84,65.83,65.83,0,0,0,9,8.81,2.58,2.58,0,0,0,3.11-.65C205.28,181.09,205.69,179.87,205,179Zm-7.11,8.9a71.26,71.26,0,0,0-8.65-8.49c-1.14-.82-2.2-.41-3.18.57a2.26,2.26,0,0,0-.08,3.18,100.71,100.71,0,0,0,8.57,8.09,2.24,2.24,0,0,0,2.94-.49A2.18,2.18,0,0,0,197.85,187.87Zm-6.28,8.9a80.52,80.52,0,0,0-8.49-8.17c-1.06-.89-2.53-.08-3.1.49s-1.15,2.29-.41,3.19a56.58,56.58,0,0,0,8.41,8.08c.81.65,2.45.16,3-.41C191.9,199.05,192.39,197.75,191.57,196.77Zm14.61-23.27c1.06.41,4,.08,6.37-.49a3,3,0,0,1,3.67,2.53c.41,1.72-1.14,3.59-5.38,3.59a29.4,29.4,0,0,0,8.89,2.86c1.72.25,3.11,1.31,2.86,3.35s-1.31,2.61-2.61,2.77a8.27,8.27,0,0,1-3.84-.89,20,20,0,0,0,5.31,12.49c1.22,1.22,1.3,2.45-.33,3.92s-2.77.81-3.92-.33a25.18,25.18,0,0,1-7.26-18.86,6.55,6.55,0,0,1-6.29,4.16c1.06,4-2,7.68-6,8.33a7.44,7.44,0,0,1-4.33,8.57c8.57,7.92,15.27,10.7,24.49,9.63l16.09-16.08c-2.86-3-3.27-7-3.6-9.79-.57-6.45-1.22-14.29-6.12-19.19-2.37-2.36-5.22-3.92-8.33-3.75s-8.81,1.79-13.3,3.51A13.22,13.22,0,0,0,206.18,173.5Zm40.74,29.31-4.25-4.25L216.3,224.93l4.25,4.25Z"/><path class="move_dru_right" d="M84.87,61.55c1.8,1.8,1.22,4.16-1,6.37,8.49,0,15.59,4.82,27.27,15.67,8.81,8.17,12.81,13,10.28,18-1.3,2.45-3.59,4.41-5.88,4.74a7.42,7.42,0,0,1-1.06,6.94,7,7,0,0,1-5.14,2.53,7,7,0,0,1-1.63,7.51c-1.47,1.47-5.39,3.59-8.9,1.39,6.53,6.53,11.84,11.83,15.43,16.08s3,8.24.08,11.18c-3.43,3.43-7.76,3-11.1.33a251.7,251.7,0,0,1-25.72-24.08,18.87,18.87,0,0,1-9.3-4.9c-4.58-4.57-7-10.12-8.09-17.39-.57-4-.81-9-2.77-11.59-2.61,2.61-4.65,3-6.45,1.22l-9.31-9.3c-2.69-2.86-2.61-4.58.08-7.27L68.3,52.33c2.69-2.7,4.49-2.86,7.26-.09Zm6.61,63.76a44.66,44.66,0,0,1-7.1,2.2,296.73,296.73,0,0,0,21.88,20.08,2.77,2.77,0,0,0,3.75.17c1.06-1.06.9-2.53-.24-3.84C104.13,137.8,97.77,131.27,91.48,125.31Zm-.81-15.51a94.16,94.16,0,0,0,9.14,9,2.67,2.67,0,0,0,3.51-3.84,66.47,66.47,0,0,0-9-8.82,2.59,2.59,0,0,0-3.1.66C90.34,107.68,89.93,108.9,90.67,109.8Zm7.1-8.9a71.26,71.26,0,0,0,8.65,8.49c1.14.82,2.21.41,3.18-.57a2.28,2.28,0,0,0,.09-3.19,102.4,102.4,0,0,0-8.58-8.08,2.21,2.21,0,0,0-2.93.49A2.17,2.17,0,0,0,97.77,100.9Zm6.28-8.9a79.45,79.45,0,0,0,8.49,8.16c1.07.9,2.53.09,3.11-.48s1.14-2.29.4-3.19a56.49,56.49,0,0,0-8.4-8.08c-.82-.65-2.45-.16-3,.41C103.73,89.72,103.24,91,104.05,92ZM89.44,115.27c-1.06-.41-4-.08-6.37.49a3,3,0,0,1-3.67-2.53c-.41-1.72,1.14-3.6,5.39-3.6a29.71,29.71,0,0,0-8.9-2.85c-1.71-.25-3.1-1.31-2.86-3.35s1.31-2.61,2.61-2.78a8.4,8.4,0,0,1,3.84.9,19.93,19.93,0,0,0-5.31-12.49c-1.22-1.22-1.3-2.45.33-3.92s2.78-.81,3.92.33a25.23,25.23,0,0,1,7.27,18.86A6.55,6.55,0,0,1,92,100.16c-1.06-4,2-7.67,6-8.32a7.44,7.44,0,0,1,4.33-8.57c-8.57-7.92-15.27-10.7-24.49-9.64L61.77,89.72c2.85,3,3.26,7,3.59,9.79.57,6.45,1.22,14.29,6.12,19.19,2.37,2.36,5.23,3.91,8.33,3.75s8.81-1.8,13.3-3.51A12.71,12.71,0,0,0,89.44,115.27ZM48.71,86,53,90.2,79.32,63.84l-4.25-4.25Z"/></svg>
