<svg id="move_keppelse_01" data-name="move_keppelse_01" xmlns="http://www.w3.org/2000/svg" viewBox="0 0 641 620"><defs><style>.move_keppelse_01_01{stroke:#fff;stroke-miterlimit:10;stroke-width:6px;}</style></defs><rect class="move_keppelse_01_01" x="234" y="309" width="152" height="152" rx="31" ry="31"/><path class="move_keppelse_01_02" d="M385.71,218.26l-7.29-26.52-59.08,29.65c4.08,14.88,8.13,29.47,12.07,44.09a33,33,0,0,1,1.28,7.61A22.07,22.07,0,1,1,313.6,251.6c5,.64,5,.64,3.71-4.08q-5.87-21.39-11.74-42.78c-2.9-10.6.66-19.1,10.4-24.1,12.8-6.58,25.64-13.09,38.59-19.38,12.73-6.18,24.75-.56,28.53,13.11,5.47,19.83,11,39.66,16.3,59.53a22.52,22.52,0,0,1-9.69,24.78,22.19,22.19,0,1,1-9-41C382.14,217.89,383.55,218,385.71,218.26Zm-9.51-35.49c-.28-1-.49-1.58-.59-2.17-2.22-12.78-10-16-21-9.69-11.2,6.38-23,11.67-34.55,17.49-4.88,2.47-7.43,6.6-6.54,11.28.8,4.21,2.2,8.29,3.45,12.84Zm5.21,69.86a13.3,13.3,0,1,0-16.25-9.6A13.27,13.27,0,0,0,381.41,252.63Zm-74.36,8.18a13.3,13.3,0,1,0,16.44,9.25A13.27,13.27,0,0,0,307.05,260.81Z"/><path class="move_keppelse_01_02" d="M247.68,184.48c5.4,19.67,10.59,38.67,15.85,57.64a24,24,0,0,1-.42,15.21A21.68,21.68,0,0,1,236.94,271a22.16,22.16,0,0,1,7.34-43.53,15.59,15.59,0,0,1,2.56.33c3,.74,3.45-.6,2.69-3.16-1.12-3.78-2.1-7.59-3.15-11.39q-4.11-15-8.2-29.92c-1.22-4.49,0-6.46,4.55-7.35,10.4-2.07,21.6,4.44,24.94,14.48,1.12,3.35.25,6.07-2.39,6.74-3,.75-4.9-.65-5.92-3.54C257.53,188.47,253.85,185.51,247.68,184.48Zm-8.58,52.26a13.3,13.3,0,1,0,16.32,9.47A13.27,13.27,0,0,0,239.1,236.74Z"/></svg>
