<svg id="moves_06" data-name="moves_06" xmlns="http://www.w3.org/2000/svg" viewBox="0 0 229.85 220.84"><title>move</title><path class="moves_06_01" d="M109.85,97.81c0-14.26-6.46-25.81-14.42-25.81S81,83.55,81,97.81a40.39,40.39,0,0,0,2.93,15.59h23A40.39,40.39,0,0,0,109.85,97.81Z"/><path class="moves_06_02" d="M149.85,97.81c0-14.26-6.46-25.81-14.42-25.81S121,83.55,121,97.81a40.39,40.39,0,0,0,2.93,15.59h23A40.39,40.39,0,0,0,149.85,97.81Z"/><rect class="moves_06_01" x="85.85" y="121.96" width="21" height="20.88" rx="5" ry="5"/><rect class="moves_06_02" x="124.85" y="121.96" width="21" height="20.88" rx="5" ry="5"/></svg>