<svg id="moves_05" data-name="moves_05" xmlns="http://www.w3.org/2000/svg" viewBox="0 0 119.29 124.37"><defs><style>.moves_05_01{fill:#fff;}.moves_05_02{fill:#020202;}</style></defs><title>moves</title><path class="moves_05_01" d="M37.57,118.36c-11.64-.47-20.86-4.66-28.19-12.82A25.33,25.33,0,0,1,3.12,90.8a28.19,28.19,0,0,1,1.1-10.53A71.79,71.79,0,0,0,6.68,62.75l.39-20.11c.06-3.29,2-5.25,5.13-5.25h.53a9.92,9.92,0,0,1,9.54,9.66L22.36,49c.19,4,.38,8,.64,12a2.45,2.45,0,0,0,1.6,2.41,3.27,3.27,0,0,0,1.26.29,2.83,2.83,0,0,0,1.94-.89c1.95-1.8,3.9-3.7,5.79-5.53l2.48-2.39,5.55-5.34c5.11-4.9,10.39-10,15.56-15a7.1,7.1,0,0,1,5-2.15,7.35,7.35,0,0,1,3.45.89,6.85,6.85,0,0,1,3.63,5.12A7.76,7.76,0,0,1,67,45.09C65,47,63.06,48.89,61.1,50.78L58.49,53.3l-3.57,3.46-9.66,9.36a1.62,1.62,0,0,0-.31.36L46.62,69l-1.53-2.58a6,6,0,0,0,.56-.5L70.83,41.73l2.29-2.21A7,7,0,0,1,78,37.46a7.41,7.41,0,0,1,2.34.39,6.9,6.9,0,0,1,4.76,5.53,7.18,7.18,0,0,1-2.3,6.68L74.9,57.65l-6.76,6.46q-6.45,6.18-12.92,12.34a1.67,1.67,0,0,0-.32.39l.1,0a5,5,0,0,0,.62-.54L78.91,53.85a7.72,7.72,0,0,1,5.33-2.29,7.19,7.19,0,0,1,7,6.27A7.38,7.38,0,0,1,89,64c-1.75,1.69-3.52,3.37-5.29,5.05l-3.12,3q-7.76,7.42-15.5,14.86a1.07,1.07,0,0,0-.19.23h0a.5.5,0,0,0,.32-.18l13.2-12.67,5-4.81a7,7,0,0,1,4.9-2.06,7.56,7.56,0,0,1,2.49.44,6.93,6.93,0,0,1,4.65,5.75,6.62,6.62,0,0,1-1.94,5.86l-8.16,7.9c-7.12,6.91-14.48,14-21.81,21a36.15,36.15,0,0,1-21.68,9.75c-1.12.11-2.22.17-3.11.23l-1,.06Z"/><path class="moves_05_02" d="M62.19,35.45a4.29,4.29,0,0,1,2,.55c2.55,1.33,2.83,4.77.61,7-2.8,2.75-5.63,5.47-8.44,8.2Q49.8,57.56,43.18,64A3.32,3.32,0,0,0,42,66.57,3,3,0,0,0,45,69.46,3.13,3.13,0,0,0,46.62,69a6.54,6.54,0,0,0,1.11-.92L75.2,41.69A4,4,0,0,1,78,40.46a4.44,4.44,0,0,1,1.41.24,3.85,3.85,0,0,1,2.73,3.2,4.23,4.23,0,0,1-1.41,4q-6,5.76-12.07,11.55-7.77,7.43-15.54,14.84A3.21,3.21,0,0,0,52,77.47a3.07,3.07,0,0,0,3,2.34,3,3,0,0,0,1.61-.47,6.52,6.52,0,0,0,1.11-.93L81,56a4.72,4.72,0,0,1,3.25-1.45,3.93,3.93,0,0,1,2,.58,4.14,4.14,0,0,1,.64,6.69c-2.77,2.7-5.59,5.34-8.38,8L63,84.71a3,3,0,0,0-.35,4.46,3,3,0,0,0,2.2,1,3.53,3.53,0,0,0,2.44-1L85.52,71.6a4,4,0,0,1,2.82-1.22,4.49,4.49,0,0,1,1.5.27A3.89,3.89,0,0,1,92.51,74a3.61,3.61,0,0,1-1.05,3.27c-10,9.64-19.89,19.34-30,28.88a33.23,33.23,0,0,1-19.91,8.93c-1.47.15-3,.21-3.9.28-10.68-.43-19.28-4.25-26.08-11.82a22.39,22.39,0,0,1-5.51-13,25.64,25.64,0,0,1,1-9.43A74.15,74.15,0,0,0,9.68,62.81l.39-20.11c0-1.64.63-2.31,2.13-2.31h.35a6.9,6.9,0,0,1,6.72,6.8c.22,4.68.43,9.37.73,14a5.45,5.45,0,0,0,3.44,5,6.21,6.21,0,0,0,2.42.52,5.79,5.79,0,0,0,4-1.69c2.81-2.6,5.54-5.3,8.31-8,7-6.78,14.11-13.53,21.12-20.35a4.14,4.14,0,0,1,2.92-1.3m0-6a10.1,10.1,0,0,0-7.11,3c-5.14,5-10.41,10.06-15.5,15L34,52.77l-2.47,2.39c-1.82,1.76-3.69,3.58-5.55,5.31-.25-3.85-.43-7.79-.62-11.61l-.09-1.94A12.83,12.83,0,0,0,12.91,34.41l-.71,0c-4.77,0-8,3.29-8.13,8.19L3.68,62.7A68.3,68.3,0,0,1,1.32,79.48,31.43,31.43,0,0,0,.13,91.1a28.3,28.3,0,0,0,7,16.44c7.78,8.68,18,13.32,30.31,13.81l.32,0,.33,0,.86,0c.92-.05,2.05-.12,3.23-.24A39.11,39.11,0,0,0,65.63,110.5c7.33-6.94,14.69-14.08,21.81-21l8.19-7.93a9.56,9.56,0,0,0,2.82-8.45,9.88,9.88,0,0,0-6.38-8.07,10.24,10.24,0,0,0,2.19-7.59A10.05,10.05,0,0,0,89.34,50,10.22,10.22,0,0,0,87.26,49a10.1,10.1,0,0,0,.82-6.18A9.81,9.81,0,0,0,81.3,35,10.6,10.6,0,0,0,78,34.46a9.84,9.84,0,0,0-6.11,2.14A9.78,9.78,0,0,0,67,30.68a10.39,10.39,0,0,0-4.84-1.23Z"/><path class="moves_05_01" d="M89.08,21.3a3.11,3.11,0,0,0,2.64,3.14,2.94,2.94,0,0,0,3.37-2q3.54-7.77,7.06-15.56a4.63,4.63,0,0,0,.38-1.12,3,3,0,0,0-2.06-3.3A3,3,0,0,0,96.78,4.3Q93.15,12,89.55,19.78A9.91,9.91,0,0,0,89.08,21.3Z"/><path class="moves_05_01" d="M84.15,19.75c0-.16-.07-.5-.16-.83-.58-2.22-1.18-4.44-1.77-6.66q-1.29-4.85-2.59-9.69c-.55-2-2.09-3-3.89-2.41a3,3,0,0,0-2.07,3.67c1,3.79,2,7.56,3,11.35.49,1.83,1,3.67,1.48,5.5A3,3,0,0,0,81.39,23,3.16,3.16,0,0,0,84.15,19.75Z"/><path class="moves_05_01" d="M97.19,29.17a3.07,3.07,0,0,0,4.47,2.67c2.28-1,4.52-2.11,6.78-3.17,3-1.41,6-2.79,9-4.22a2.88,2.88,0,0,0,1.3-4.4,3,3,0,0,0-4-1c-1.75.79-3.49,1.62-5.24,2.44L99.21,26.29A3,3,0,0,0,97.19,29.17Z"/><path d="M89.08,21.3a9.91,9.91,0,0,1,.47-1.52Q93.14,12,96.78,4.3a3,3,0,0,1,3.69-1.81,3,3,0,0,1,2.06,3.3,4.63,4.63,0,0,1-.38,1.12q-3.51,7.79-7.06,15.56a2.94,2.94,0,0,1-3.37,2A3.11,3.11,0,0,1,89.08,21.3Z"/><path d="M84.15,19.75A3.16,3.16,0,0,1,81.39,23a3,3,0,0,1-3.23-2.32c-.52-1.83-1-3.67-1.48-5.5-1-3.79-2-7.56-3-11.35A3,3,0,0,1,75.74.16c1.8-.56,3.34.38,3.89,2.41q1.31,4.84,2.59,9.69c.59,2.22,1.19,4.44,1.77,6.66C84.08,19.25,84.12,19.59,84.15,19.75Z"/><path d="M97.19,29.17a3,3,0,0,1,2-2.88l10.31-4.82c1.75-.82,3.49-1.65,5.24-2.44a3,3,0,0,1,4,1,2.88,2.88,0,0,1-1.3,4.4c-3,1.43-6,2.81-9,4.22-2.26,1.06-4.5,2.15-6.78,3.17A3.07,3.07,0,0,1,97.19,29.17Z"/><path class="moves_05_01" d="M53.57,121.36c-11.64-.47-20.86-4.66-28.19-12.82A25.33,25.33,0,0,1,19.12,93.8a28.19,28.19,0,0,1,1.1-10.53,71.79,71.79,0,0,0,2.46-17.52l.39-20.11c.06-3.29,2-5.25,5.13-5.25h.53a9.92,9.92,0,0,1,9.54,9.66L38.36,52c.19,4,.38,8,.64,12a2.45,2.45,0,0,0,1.6,2.41,3.27,3.27,0,0,0,1.26.29,2.83,2.83,0,0,0,1.94-.89c2-1.8,3.9-3.7,5.79-5.53l2.48-2.39,5.55-5.34c5.11-4.9,10.39-10,15.56-15a7.1,7.1,0,0,1,5-2.15,7.35,7.35,0,0,1,3.45.89,6.85,6.85,0,0,1,3.63,5.12A7.76,7.76,0,0,1,83,48.09C81,50,79.06,51.89,77.1,53.78L74.49,56.3l-3.57,3.46-9.66,9.36a1.62,1.62,0,0,0-.31.36L62.62,72l-1.53-2.58a6,6,0,0,0,.56-.5L86.83,44.73l2.29-2.21A7,7,0,0,1,94,40.46a7.41,7.41,0,0,1,2.34.39,6.9,6.9,0,0,1,4.76,5.53,7.18,7.18,0,0,1-2.3,6.68L90.9,60.65l-6.76,6.46q-6.45,6.18-12.92,12.34a1.67,1.67,0,0,0-.32.39l.1,0a5,5,0,0,0,.62-.54L94.91,56.85a7.72,7.72,0,0,1,5.33-2.29,7.19,7.19,0,0,1,7,6.27A7.38,7.38,0,0,1,105,67c-1.75,1.69-3.52,3.37-5.29,5.05l-3.12,3q-7.76,7.42-15.5,14.86a1.07,1.07,0,0,0-.19.23h0a.5.5,0,0,0,.32-.18l13.2-12.67,5-4.81a7,7,0,0,1,4.9-2.06,7.56,7.56,0,0,1,2.49.44,6.93,6.93,0,0,1,4.65,5.75,6.62,6.62,0,0,1-1.94,5.86l-8.16,7.9c-7.12,6.91-14.48,14-21.81,21a36.15,36.15,0,0,1-21.68,9.75c-1.12.11-2.22.17-3.11.23l-1,.06Z"/><path class="moves_05_02" d="M78.19,38.45a4.29,4.29,0,0,1,2,.55c2.55,1.33,2.83,4.77.61,7-2.8,2.75-5.63,5.47-8.44,8.2Q65.8,60.56,59.18,67A3.32,3.32,0,0,0,58,69.57,3,3,0,0,0,61,72.46,3.13,3.13,0,0,0,62.62,72a6.54,6.54,0,0,0,1.11-.92L91.2,44.69A4,4,0,0,1,94,43.46a4.44,4.44,0,0,1,1.41.24,3.85,3.85,0,0,1,2.73,3.2,4.23,4.23,0,0,1-1.41,4q-6,5.76-12.07,11.55-7.77,7.43-15.54,14.84A3.21,3.21,0,0,0,68,80.47a3.07,3.07,0,0,0,3,2.34,3,3,0,0,0,1.61-.47,6.52,6.52,0,0,0,1.11-.93L97,59a4.72,4.72,0,0,1,3.25-1.45,3.93,3.93,0,0,1,2,.58,4.14,4.14,0,0,1,.64,6.69c-2.77,2.7-5.59,5.34-8.38,8L79,87.71a3,3,0,0,0-.35,4.46,3,3,0,0,0,2.2,1,3.53,3.53,0,0,0,2.44-1l18.2-17.49a4,4,0,0,1,2.82-1.22,4.49,4.49,0,0,1,1.5.27A3.89,3.89,0,0,1,108.51,77a3.61,3.61,0,0,1-1.05,3.27c-10,9.64-19.89,19.34-30,28.88a33.23,33.23,0,0,1-19.91,8.93c-1.47.15-3,.21-3.9.28-10.68-.43-19.28-4.25-26.08-11.82a22.39,22.39,0,0,1-5.51-13,25.64,25.64,0,0,1,1-9.43,74.15,74.15,0,0,0,2.57-18.26l.39-20.11c0-1.64.63-2.31,2.13-2.31h.35a6.9,6.9,0,0,1,6.72,6.8c.22,4.68.43,9.37.73,14a5.45,5.45,0,0,0,3.44,5,6.21,6.21,0,0,0,2.42.52,5.79,5.79,0,0,0,4-1.69c2.81-2.6,5.54-5.3,8.31-8,7-6.78,14.11-13.53,21.12-20.35a4.14,4.14,0,0,1,2.92-1.3m0-6a10.1,10.1,0,0,0-7.11,3c-5.14,5-10.41,10.06-15.5,15L50,55.77l-2.47,2.39c-1.82,1.76-3.69,3.58-5.55,5.31-.25-3.85-.43-7.79-.62-11.61l-.09-1.94A12.83,12.83,0,0,0,28.91,37.41l-.71,0c-4.77,0-8,3.29-8.13,8.19L19.68,65.7a68.3,68.3,0,0,1-2.36,16.78A31.43,31.43,0,0,0,16.13,94.1a28.3,28.3,0,0,0,7,16.44c7.78,8.68,18,13.32,30.31,13.81l.32,0,.33,0,.86,0c.92-.05,2.05-.12,3.23-.24A39.11,39.11,0,0,0,81.63,113.5c7.33-6.94,14.69-14.08,21.81-21l8.19-7.93a9.56,9.56,0,0,0,2.82-8.45,9.88,9.88,0,0,0-6.38-8.07,10.24,10.24,0,0,0,2.19-7.59,10.05,10.05,0,0,0-4.92-7.5,10.22,10.22,0,0,0-2.08-.94,10.1,10.1,0,0,0,.82-6.18A9.81,9.81,0,0,0,97.3,38,10.6,10.6,0,0,0,94,37.46a9.84,9.84,0,0,0-6.11,2.14A9.78,9.78,0,0,0,83,33.68a10.39,10.39,0,0,0-4.84-1.23Z"/></svg>