<svg id="moves_06" data-name="moves_06" xmlns="http://www.w3.org/2000/svg" viewBox="0 0 68.85 70.84"><title>moves</title><path class="moves_06_01" d="M28.85,25.81C28.85,11.55,22.39,0,14.43,0S0,11.55,0,25.81A40.39,40.39,0,0,0,2.93,41.4h23A40.39,40.39,0,0,0,28.85,25.81Z"/><path class="moves_06_02" d="M68.85,25.81C68.85,11.55,62.39,0,54.43,0S40,11.55,40,25.81A40.39,40.39,0,0,0,42.93,41.4h23A40.39,40.39,0,0,0,68.85,25.81Z"/><rect class="moves_06_01" x="4.85" y="49.96" width="21" height="20.88" rx="5" ry="5"/><rect class="moves_06_02" x="43.85" y="49.96" width="21" height="20.88" rx="5" ry="5"/></svg>