<svg id="moves_05" data-name="moves_05" xmlns="http://www.w3.org/2000/svg" viewBox="0 0 271.29 259.37"><defs><style>.moves_05_01,.moves_05_lefthand,.moves_05_rigthhand{fill:#fff; }.moves_05_02,.moves_05_leftline,.moves_05_rigthline{fill:#020202;}</style></defs><title>move</title><path class="moves_05_lefthand" d="M116.57,181.36c-11.64-.47-20.86-4.66-28.19-12.82a25.33,25.33,0,0,1-6.26-14.74,28.19,28.19,0,0,1,1.1-10.53,71.79,71.79,0,0,0,2.46-17.52l.39-20.11c.06-3.29,2-5.25,5.13-5.25h.53a9.92,9.92,0,0,1,9.54,9.66l.09,1.94c.19,4,.38,8,.64,12a2.45,2.45,0,0,0,1.6,2.41,3.27,3.27,0,0,0,1.26.29,2.83,2.83,0,0,0,1.94-.89c2-1.8,3.9-3.7,5.79-5.53l2.48-2.39,5.55-5.34c5.11-4.9,10.39-10,15.56-15a7.1,7.1,0,0,1,5-2.15,7.35,7.35,0,0,1,3.45.89,6.85,6.85,0,0,1,3.63,5.12,7.76,7.76,0,0,1-2.32,6.63c-1.94,1.91-3.89,3.8-5.85,5.69l-2.61,2.52-3.57,3.46-9.66,9.36a1.62,1.62,0,0,0-.31.36l1.67,2.54-1.53-2.58a6,6,0,0,0,.56-.5l25.18-24.21,2.29-2.21a7,7,0,0,1,4.91-2.06,7.41,7.41,0,0,1,2.34.39,6.9,6.9,0,0,1,4.76,5.53,7.18,7.18,0,0,1-2.3,6.68l-7.93,7.59-6.76,6.46q-6.45,6.18-12.92,12.34a1.67,1.67,0,0,0-.32.39l.1,0a5,5,0,0,0,.62-.54l23.29-22.42a7.72,7.72,0,0,1,5.33-2.29,7.19,7.19,0,0,1,7,6.27A7.38,7.38,0,0,1,168,127c-1.75,1.69-3.52,3.37-5.29,5l-3.12,3q-7.76,7.43-15.5,14.86a1.07,1.07,0,0,0-.19.23h0a.5.5,0,0,0,.32-.18l13.2-12.67,5-4.81a7,7,0,0,1,4.9-2.06,7.56,7.56,0,0,1,2.49.44,6.93,6.93,0,0,1,4.65,5.75,6.62,6.62,0,0,1-1.94,5.86l-8.16,7.9c-7.12,6.91-14.48,14-21.81,21a36.15,36.15,0,0,1-21.68,9.75c-1.12.11-2.22.17-3.11.23l-1,.06Z"/><path class="moves_05_leftline" d="M141.19,98.45a4.29,4.29,0,0,1,2.05.55c2.55,1.33,2.83,4.77.61,7-2.8,2.75-5.63,5.47-8.44,8.2q-6.61,6.41-13.23,12.81a3.32,3.32,0,0,0-1.21,2.61,3,3,0,0,0,3.06,2.89,3.13,3.13,0,0,0,1.59-.44,6.54,6.54,0,0,0,1.11-.92l27.47-26.41a4,4,0,0,1,2.83-1.23,4.44,4.44,0,0,1,1.41.24,3.85,3.85,0,0,1,2.73,3.2,4.23,4.23,0,0,1-1.41,4q-6,5.76-12.07,11.55-7.77,7.43-15.54,14.84a3.21,3.21,0,0,0-1.15,3.19,3.07,3.07,0,0,0,3,2.34,3,3,0,0,0,1.61-.47,6.52,6.52,0,0,0,1.11-.93L160,119a4.72,4.72,0,0,1,3.25-1.45,3.93,3.93,0,0,1,2,.58,4.14,4.14,0,0,1,.64,6.69c-2.77,2.7-5.59,5.34-8.38,8L142,147.71a3,3,0,0,0-.35,4.46,3,3,0,0,0,2.2,1,3.53,3.53,0,0,0,2.44-1l18.2-17.49a4,4,0,0,1,2.82-1.22,4.49,4.49,0,0,1,1.5.27,3.89,3.89,0,0,1,2.67,3.35,3.61,3.61,0,0,1-1,3.27c-10,9.64-19.89,19.34-30,28.88a33.23,33.23,0,0,1-19.91,8.93c-1.47.15-3,.21-3.9.28-10.68-.43-19.28-4.25-26.08-11.82a22.39,22.39,0,0,1-5.51-13,25.64,25.64,0,0,1,1-9.43,74.15,74.15,0,0,0,2.57-18.26l.39-20.11c0-1.64.63-2.31,2.13-2.31h.35a6.9,6.9,0,0,1,6.72,6.8c.22,4.68.43,9.37.73,14a5.45,5.45,0,0,0,3.44,5,6.21,6.21,0,0,0,2.42.52,5.79,5.79,0,0,0,4-1.69c2.81-2.6,5.54-5.3,8.31-8,7-6.78,14.11-13.53,21.12-20.35a4.14,4.14,0,0,1,2.92-1.3m0-6a10.1,10.1,0,0,0-7.11,3c-5.14,5-10.41,10.06-15.5,15L113,115.77l-2.47,2.39c-1.82,1.76-3.69,3.58-5.55,5.31-.25-3.85-.43-7.79-.62-11.61l-.09-1.94A12.83,12.83,0,0,0,91.91,97.41l-.71,0c-4.77,0-8,3.29-8.13,8.19l-.39,20.12a68.3,68.3,0,0,1-2.36,16.78,31.43,31.43,0,0,0-1.19,11.62,28.3,28.3,0,0,0,7,16.44c7.78,8.68,18,13.32,30.31,13.81l.32,0,.33,0,.86-.05c.92,0,2-.12,3.23-.24a39.11,39.11,0,0,0,23.43-10.55c7.33-6.94,14.69-14.08,21.81-21l8.19-7.93a9.56,9.56,0,0,0,2.82-8.45,9.88,9.88,0,0,0-6.38-8.07,10.24,10.24,0,0,0,2.19-7.59,10.05,10.05,0,0,0-4.92-7.5,10.22,10.22,0,0,0-2.08-.94,10.1,10.1,0,0,0,.82-6.18A9.81,9.81,0,0,0,160.3,98a10.6,10.6,0,0,0-3.27-.53,9.84,9.84,0,0,0-6.11,2.14A9.78,9.78,0,0,0,146,93.68a10.39,10.39,0,0,0-4.84-1.23Z"/><path class="moves_05_01" d="M168.08,84.3a3.11,3.11,0,0,0,2.64,3.14,2.94,2.94,0,0,0,3.37-2q3.54-7.77,7.06-15.56a4.63,4.63,0,0,0,.38-1.12,3,3,0,0,0-2.06-3.3,3,3,0,0,0-3.69,1.81q-3.63,7.73-7.23,15.48A9.91,9.91,0,0,0,168.08,84.3Z"/><path class="moves_05_01" d="M163.15,82.75c0-.16-.07-.5-.16-.83-.58-2.22-1.18-4.44-1.77-6.66q-1.29-4.85-2.59-9.69c-.55-2-2.09-3-3.89-2.41a3,3,0,0,0-2.07,3.67c1,3.79,2,7.56,3,11.35.49,1.83,1,3.67,1.48,5.5A3,3,0,0,0,160.39,86,3.16,3.16,0,0,0,163.15,82.75Z"/><path class="moves_05_01" d="M176.19,92.17a3.07,3.07,0,0,0,4.47,2.67c2.28-1,4.52-2.11,6.78-3.17,3-1.41,6-2.79,9-4.22a2.88,2.88,0,0,0,1.3-4.4,3,3,0,0,0-4-1c-1.75.79-3.49,1.62-5.24,2.44l-10.31,4.82A3,3,0,0,0,176.19,92.17Z"/><path class="moves_05_01" d="M168.08,84.3a9.91,9.91,0,0,1,.47-1.52q3.58-7.75,7.23-15.48a3,3,0,0,1,3.69-1.81,3,3,0,0,1,2.06,3.3,4.63,4.63,0,0,1-.38,1.12q-3.51,7.78-7.06,15.56a2.94,2.94,0,0,1-3.37,2A3.11,3.11,0,0,1,168.08,84.3Z"/><path class="moves_05_01" d="M163.15,82.75A3.16,3.16,0,0,1,160.39,86a3,3,0,0,1-3.23-2.32c-.52-1.83-1-3.67-1.48-5.5-1-3.79-2-7.56-3-11.35a3,3,0,0,1,2.07-3.67c1.8-.56,3.34.38,3.89,2.41q1.31,4.84,2.59,9.69c.59,2.22,1.19,4.44,1.77,6.66C163.08,82.25,163.12,82.59,163.15,82.75Z"/><path class="moves_05_01"d="M176.19,92.17a3,3,0,0,1,2-2.88l10.31-4.82c1.75-.82,3.49-1.65,5.24-2.44a3,3,0,0,1,4,1,2.88,2.88,0,0,1-1.3,4.4c-3,1.43-6,2.81-9,4.22-2.26,1.06-4.5,2.15-6.78,3.17A3.07,3.07,0,0,1,176.19,92.17Z"/><path class="moves_05_rigthhand" d="M132.57,184.36c-11.64-.47-20.86-4.66-28.19-12.82a25.33,25.33,0,0,1-6.26-14.74,28.19,28.19,0,0,1,1.1-10.53,71.79,71.79,0,0,0,2.46-17.52l.39-20.11c.06-3.29,2-5.25,5.13-5.25h.53a9.92,9.92,0,0,1,9.54,9.66l.09,1.94c.19,4,.38,8,.64,12a2.45,2.45,0,0,0,1.6,2.41,3.27,3.27,0,0,0,1.26.29,2.83,2.83,0,0,0,1.94-.89c2-1.8,3.9-3.7,5.79-5.53l2.48-2.39,5.55-5.34c5.11-4.9,10.39-10,15.56-15a7.1,7.1,0,0,1,5-2.15,7.35,7.35,0,0,1,3.45.89,6.85,6.85,0,0,1,3.63,5.12,7.76,7.76,0,0,1-2.32,6.63c-1.94,1.91-3.89,3.8-5.85,5.69l-2.61,2.52-3.57,3.46-9.66,9.36a1.62,1.62,0,0,0-.31.36l1.67,2.54-1.53-2.58a6,6,0,0,0,.56-.5l25.18-24.21,2.29-2.21a7,7,0,0,1,4.91-2.06,7.41,7.41,0,0,1,2.34.39,6.9,6.9,0,0,1,4.76,5.53,7.18,7.18,0,0,1-2.3,6.68l-7.93,7.59-6.76,6.46q-6.45,6.18-12.92,12.34a1.67,1.67,0,0,0-.32.39l.1,0a5,5,0,0,0,.62-.54l23.29-22.42a7.72,7.72,0,0,1,5.33-2.29,7.19,7.19,0,0,1,7,6.27A7.38,7.38,0,0,1,184,130c-1.75,1.69-3.52,3.37-5.29,5l-3.12,3q-7.76,7.43-15.5,14.86a1.07,1.07,0,0,0-.19.23h0a.5.5,0,0,0,.32-.18l13.2-12.67,5-4.81a7,7,0,0,1,4.9-2.06,7.56,7.56,0,0,1,2.49.44,6.93,6.93,0,0,1,4.65,5.75,6.62,6.62,0,0,1-1.94,5.86l-8.16,7.9c-7.12,6.91-14.48,14-21.81,21a36.15,36.15,0,0,1-21.68,9.75c-1.12.11-2.22.17-3.11.23l-1,.06Z"/><path class="moves_05_rigthline" d="M157.19,101.45a4.29,4.29,0,0,1,2.05.55c2.55,1.33,2.83,4.77.61,7-2.8,2.75-5.63,5.47-8.44,8.2q-6.61,6.41-13.23,12.81a3.32,3.32,0,0,0-1.21,2.61,3,3,0,0,0,3.06,2.89,3.13,3.13,0,0,0,1.59-.44,6.54,6.54,0,0,0,1.11-.92l27.47-26.41a4,4,0,0,1,2.83-1.23,4.44,4.44,0,0,1,1.41.24,3.85,3.85,0,0,1,2.73,3.2,4.23,4.23,0,0,1-1.41,4q-6,5.76-12.07,11.55-7.77,7.42-15.54,14.84a3.21,3.21,0,0,0-1.15,3.19,3.07,3.07,0,0,0,3,2.34,3,3,0,0,0,1.61-.47,6.52,6.52,0,0,0,1.11-.93L176,122a4.72,4.72,0,0,1,3.25-1.45,3.93,3.93,0,0,1,2,.58,4.14,4.14,0,0,1,.64,6.69c-2.77,2.7-5.59,5.34-8.38,8L158,150.71a3,3,0,0,0-.35,4.46,3,3,0,0,0,2.2,1,3.53,3.53,0,0,0,2.44-1l18.2-17.49a4,4,0,0,1,2.82-1.22,4.49,4.49,0,0,1,1.5.27,3.89,3.89,0,0,1,2.67,3.35,3.61,3.61,0,0,1-1,3.27c-10,9.64-19.89,19.34-30,28.88a33.23,33.23,0,0,1-19.91,8.93c-1.47.15-3,.21-3.9.28-10.68-.43-19.28-4.25-26.08-11.82a22.39,22.39,0,0,1-5.51-13,25.64,25.64,0,0,1,1-9.43,74.15,74.15,0,0,0,2.57-18.26l.39-20.11c0-1.64.63-2.31,2.13-2.31h.35a6.9,6.9,0,0,1,6.72,6.8c.22,4.68.43,9.37.73,14a5.45,5.45,0,0,0,3.44,5,6.21,6.21,0,0,0,2.42.52,5.79,5.79,0,0,0,4-1.69c2.81-2.6,5.54-5.3,8.31-8,7-6.78,14.11-13.53,21.12-20.35a4.14,4.14,0,0,1,2.92-1.3m0-6a10.1,10.1,0,0,0-7.11,3c-5.14,5-10.41,10.06-15.5,15L129,118.77l-2.47,2.39c-1.82,1.76-3.69,3.58-5.55,5.31-.25-3.85-.43-7.79-.62-11.61l-.09-1.94a12.83,12.83,0,0,0-12.35-12.51l-.71,0c-4.77,0-8,3.29-8.13,8.19l-.39,20.12a68.3,68.3,0,0,1-2.36,16.78,31.43,31.43,0,0,0-1.19,11.62,28.3,28.3,0,0,0,7,16.44c7.78,8.68,18,13.32,30.31,13.81l.32,0,.33,0,.86-.05c.92,0,2.05-.12,3.23-.24a39.11,39.11,0,0,0,23.43-10.55c7.33-6.94,14.69-14.08,21.81-21l8.19-7.93a9.56,9.56,0,0,0,2.82-8.45,9.88,9.88,0,0,0-6.38-8.07,10.24,10.24,0,0,0,2.19-7.59,10.05,10.05,0,0,0-4.92-7.5,10.22,10.22,0,0,0-2.08-.94,10.1,10.1,0,0,0,.82-6.18A9.81,9.81,0,0,0,176.3,101a10.6,10.6,0,0,0-3.27-.53,9.84,9.84,0,0,0-6.11,2.14A9.78,9.78,0,0,0,162,96.68a10.39,10.39,0,0,0-4.84-1.23Z"/></svg>