<svg id="moves_03" data-name="moves_03" xmlns="http://www.w3.org/2000/svg" viewBox="0 0 77.56 170.52"><defs><style>.moves_03_01{stroke:#fff;}.moves_03_01,.moves_03_02{stroke-miterlimit:10;stroke-width:6px;}.moves_03_02{fill:#fff;stroke:#000;}</style></defs>
    <rect class="moves_03_01" x="8.78" y="8.78" width="60" height="60" rx="16" ry="16" transform="translate(-16.06 38.78) rotate(-45)"/>
    <rect class="moves_03_02" x="11.78" y="107.78" width="55" height="55" rx="16" ry="16" transform="translate(-84.15 67.4) rotate(-45)"/>
    <path d="M65.27,115.15C70.8,104.43,65.74,90,54,86.1c-8.24-2.71-17.41.18-23.57-7.46s-3.33-18.49,4.95-23.25c3.35-1.92.33-7.11-3-5.18C19.17,57.76,17.1,76,29.07,85.72c7.12,5.77,15.28,3.34,23.29,6.17s11.5,12.93,7.72,20.23c-1.77,3.42,3.41,6.46,5.19,3Z"/></svg>