<svg id="Layer_1" data-name="Layer 1" xmlns="http://www.w3.org/2000/svg" viewBox="0 0 355.29 302.37"><title>slaap</title><path d="M83.33,148.82l-8.41-12.28v12.28H67.11V122.07h7.81v12.07l8.31-12.07h9l-9.24,13.07,9.53,13.68Z"/><path d="M94.33,122.07h7.81v26.75H94.33Z"/><path d="M119.61,149.47c-7.77,0-14.14-5.69-14.14-14a13.78,13.78,0,0,1,14.14-14.08,16.46,16.46,0,0,1,7.56,1.86v7.6a10.55,10.55,0,0,0-6.55-2.26c-4.23,0-7.27,2.9-7.27,6.88s3,6.91,7.27,6.91a10.68,10.68,0,0,0,6.55-2.47v7.7A16.34,16.34,0,0,1,119.61,149.47Z"/><path d="M147.23,148.82l-8.42-12.28v12.28H131V122.07h7.81v12.07l8.31-12.07h8.95l-9.24,13.07,9.53,13.68Z"/><path d="M33,117.08,58.76,163.7c4,7.27,7.49,15.64,12.42,22.31,4,5.43,9.54,3.13,15.17,1.75Q137.68,175.18,188,159c3.66-1.17,2.1-7-1.59-5.78q-45.67,14.61-92.18,26.38-5.7,1.44-11.4,2.83c-2.06.5-4.93,1.76-6.86,0-1-.88-1.92-3.43-2.53-4.53L62,157.22,38.22,114.06c-1.86-3.39-7-.36-5.18,3Z"/></svg>
