<?xml version="1.0" encoding="utf-8"?>
<!-- Generator: Adobe Illustrator 22.1.0, SVG Export Plug-In . SVG Version: 6.00 Build 0)  -->
<svg version="1.1" id="Layer_1" xmlns="http://www.w3.org/2000/svg" xmlns:xlink="http://www.w3.org/1999/xlink" x="0px" y="0px"
	 viewBox="0 0 211.1 196.5" style="enable-background:new 0 0 211.1 196.5;" xml:space="preserve">
<style type="text/css">
	.st0{fill:#020203;}
	.st1{fill:none;stroke:#FFFFFF;stroke-width:11;stroke-miterlimit:10;}
	.st2{fill:#FFFFFF;}
	.st3{fill:#020203;stroke:#FFFFFF;stroke-width:4;}
</style>
<path id="path2826_1_" sodipodi:nodetypes="ccccccccccccccssssssccccccccccccccccccccccccccccccccssssssssc" class="st3" d="
	M53.4,2.8c4,3.1,8.3,6.7,11.4,11.5c3.5,1.4,3.4,4.5,0.6,6.6c-2,3.8-7.9,3.6-8.5,8.4c0.4,3.7,0,8.1,2.2,11.3c1.7,3,4.6,5.2,8.1,5.6
	c5.8,2.1,12.6,0.6,18,4.2c3,2.3,8.1,2.3,9.5,6.3c-0.4,3.5,1.3,6.8,5.4,5.4c3.7,0.5,6.9,4,10.8,2.4c4.7,1.7,6.8-1.9,6.2-6.2
	c-0.2-4.5,2.3-7.3,6.3-8.8c3.1-2.5,7.5-3,11.2-1.5c5,2.8,10.1,5.4,14.7,8.8c-1.1,0.5-1.4,1.3-1.3,2.5c0.1,1.1,0.7,2.5,1.5,4
	c0.8,1.5,1.8,3.2,2.8,4.9c1,1.7,1.9,3.4,2.6,5c0.7,1.6,1.1,3.1,1,4.4c-0.1,1.3-0.8,2.3-2.2,3c-1.4,0.7-3.6,1.1-6.8,1
	c-2.7,23.9,30.3,29.1,44.3,23.5c15.4-5.8,21.2,32.7,13.6,46.1c14.3,11.7-11,15.4-14.4,23.4c-11.5,5.7-12.6,23.1-28.2,19.7
	c-3.7-5.2-12.7-1-15.4-7.1c0.5-5.5-2.5-14.4-9-8.7c-5.3-2.9-11.1-4.7-17.3-2.3c-6.4-1.1-11.5-6.7-13.6-12.6c0.4-8.7-10.7-5.4-13,0.1
	c-5.2,4.5-12.6,1.7-18.5,0.1c-5.6-2.9-14.9,0.5-14.9-8.7c-1-6.1-4.4-11.2-10.2-13.6c-8.3-3.1,1.3-7.8,4.1-11
	c1.3-4.4,10.1-10.9,1.6-12.7c-4.2-2.7,3-8.6-2.6-11.9c-3.9-4.2-8.7-10.9-14.5-10.8c-2.2,5.1-7.8,10.6-12.5,4.7
	c-2.1-4.2-5.7-7.8-10.5-9c0.1-5.1-0.3,0.2-0.3,0.2c0.4-5.4,0.3-9.6-4.4-17.5c-5.4-12.9,6.1-7,9-10C24.5,60.6,31,63.5,35,60
	c4.5-1.8,3.6-10.2-2-8.9c-4.5,0-7.4-5.1-3.1-7.8c1.3-1.9,1.1-3.7,0.6-3.3c-1.6-1-3.7-3-4.7-4.6c-1.2-2.4-2.6-4.7-4.6-6.6
	c-1.3-1.8-3-3.3-5.1-4.1c-2.6-1.2-4.8-3.3-7-5.1c-1.7-1-3.5-1.7-5.3-2.5c-1-1.2-0.9-1.4-1.6-2.8C3.9,11,4,11.9,8.1,11.4
	c2.9-0.3,5.2,1.2,7.6,1.9c3,0.9,4.9-1.1,7.2-2.4c1.6-0.9,3.2-2.9,4.3-3.8c1.1-1,2.9,0,4.3,0c2.1,0,3.3,2.6,5.2,3.3
	c0.8,0.3,5.8-2.5,6.7-2.9c2.8-1.1,5.5-2,7.6-2.9C52.1,4.3,52.8,3.6,53.4,2.8z"/>
</svg>
