<?xml version="1.0" encoding="utf-8"?>
<!-- Generator: Adobe Illustrator 22.1.0, SVG Export Plug-In . SVG Version: 6.00 Build 0)  -->
<svg version="1.1" id="Layer_1" xmlns="http://www.w3.org/2000/svg" xmlns:xlink="http://www.w3.org/1999/xlink" x="0px" y="0px"
	 viewBox="0 0 301 210.3" style="enable-background:new 0 0 301 210.3;" xml:space="preserve">
<style type="text/css">
	.st0{fill:#020203;}
	.st1{fill:none;stroke:#FFFFFF;stroke-width:11;stroke-miterlimit:10;}
	.st2{fill:#FFFFFF;}
	.st3{fill:#020203;stroke:#FFFFFF;stroke-width:4;}
</style>
<path id="path2894_1_" sodipodi:nodetypes="cccccccccccccccccssccccccccccccccccccccsssscsscccccccccccccccccccccccc" class="st3" d="
	M145,199.6c-0.3,0.1-1.4,0.4-2.5,0.7c-5.1,2.6-11,2.1-16.5,1.7c-5.9-0.4-9.7-6.2-13.3-10.3c-3.1-5.3-9.6-7.2-15.4-7
	c-4.3,0.6-8.3,4-11.7-0.2c-5.1-5.5-6.9,7.3-11.8,1.8c-5.5-1.6-10,4.3-13.3,7.9c-4.9,2.6-1.9,10.7-8.1,11.4c-5.1,3-10.6,3.2-16.2,1.8
	c-6.1,1.7-10-2.3-12.7-7.3c-2.5-7.3-8.8,0.6-13.1-3.7c-1.7-3.1-7.4-4.6-8.1-7.6c3.1-1.1,6.3-5.1,1.9-7.6c-1-2.2-4.6-6.3,0.4-5.5
	c5.8,0.3,7.5-7.6,13.1-8.5c7,0.1,6.5-7.9,9-12.5c0.8-1.3,1.1-2.7,1.1-4c0-1.3-0.3-2.6-0.9-3.9c-0.5-1.3-1.2-2.5-1.9-3.7
	c3.9,0.1,5.4,5.6,9.7,4.8c4.2,1.6,7-2.7,10.3-3.4c2.3,3.2,4.4,7.2,9.2,5.8c4.6,0.2,8.7-2.5,12.7-4.4c3.8-1.9,8.2-4,12.6-2.3
	c4.3,0,7.2,3.3,10.5,5.5c3.8,2.9,8.4,4.6,13.1,4.8c2-2,1.9-6.4-0.2-9c-1.8-3.8-5.6-6.2-7.2-10.2c-2.3-3.7-3.6-7.9-3.6-12.4
	c-0.3-3.8,0.8-10.6-5.1-8.5c-3.3,1.1-7.2,7.2-10.4,3.8c-3-4.6,3.1-6.4,4.4-10.1c0-3.1,0.9-7.9-3.1-8.7c-3.9-1.1-7.7-2.9-10.7-5.6
	c0.7-2.8,5.9-4.4,2.1-7.4c-2.4-3.3-4.9-7-4.5-11.3l0.3-0.6l0-1.1c2.1,0,4.6,0,7.1-0.4c2.5-0.4,5-1.2,7.3-2.3
	c2.3-1.1,4.6-2.7,6.6-4.5c2-1.9,3.9-4.1,5.5-6.7c1.6-2.6,3-5.5,4.1-8.7c3.8-4.1,9.2-8.2,15-12.6c5.7-4.3,11.8-8.9,16.7-14
	s10.5-14.3,11.2-21c4.8,1.2,8.4,4.9,10.5,9c4.7,5.9,10.3,0.4,12.5-4.7c5.9-0.1,10.6,6.6,14.5,10.8c5.6,3.4-1.6,9.3,2.6,11.9
	c8.5,1.8-0.2,8.3-1.6,12.7c-2.9,3.2-12.4,8-4.1,11c5.8,2.4,9.3,7.5,10.2,13.6c0,9.2,9.3,5.7,14.9,8.7c5.9,1.6,13.2,4.4,18.5-0.1
	c2.3-5.5,13.4-8.8,13-0.1c2.1,5.9,7.2,11.5,13.6,12.6c6.2-2.4,12-0.6,17.3,2.3c6.5-5.7,9.5,3.2,9,8.7c2.7,6.1,11.7,1.9,15.4,7.1
	c1.2,12.5-20.8,16.1,2.6,22.1c25.9,8.7,1.1,43.6-16.2,30.5c-12,11-30.4,14.2-43.6,16.7c1.4,12.3-32.4-11.1-42.3-11.9
	c-11.5,5.7,22.1,19.7-5.7,11.3c-11.1,6.6-27.9,8.9-14.7,25.7c-3.3,2.9-4,3.4-2.9,4.6c-3.4-2.4-9.6,1.5-12.6-3.9
	C148.6,200.4,145.9,199.7,145,199.6z"/>
</svg>
